<svg width="703" height="103" viewBox="0 0 703 103" fill="none" xmlns="http://www.w3.org/2000/svg">
<path d="M19.0029 26.9558C-16.9971 -6.37752 3.00289 -6.37752 79.0029 26.9558C155.003 60.2891 175.003 60.2891 139.003 26.9558C103.003 -6.37752 123.003 -6.37752 199.003 26.9558C275.003 60.2891 295.003 60.2891 259.003 26.9558C223.003 -6.37752 243.003 -6.37752 319.003 26.9558C395.003 60.2891 415.003 60.2891 379.003 26.9558C343.003 -6.37752 363.003 -6.37752 439.003 26.9558C515.003 60.2891 535.003 60.2891 499.003 26.9558C463.003 -6.37752 483.003 -6.37752 559.003 26.9558C635.003 60.2891 655.003 60.2891 619.003 26.9558" stroke="#8B6263" stroke-opacity="0.31" stroke-width="2"/>
<path d="M84.3571 77C48.3571 43.6667 68.3571 43.6667 144.357 77C220.357 110.333 240.357 110.333 204.357 77C168.357 43.6667 188.357 43.6667 264.357 77C340.357 110.333 360.357 110.333 324.357 77C288.357 43.6667 308.357 43.6667 384.357 77C460.357 110.333 480.357 110.333 444.357 77C408.357 43.6667 428.357 43.6667 504.357 77C580.357 110.333 600.357 110.333 564.357 77C528.357 43.6667 548.357 43.6667 624.357 77C700.357 110.333 720.357 110.333 684.357 77" stroke="#8B6263" stroke-opacity="0.31" stroke-width="2"/>
<path d="M51.3571 52C15.3571 18.6667 35.3571 18.6667 111.357 52C187.357 85.3333 207.357 85.3333 171.357 52C135.357 18.6667 155.357 18.6667 231.357 52C307.357 85.3333 327.357 85.3333 291.357 52C255.357 18.6667 275.357 18.6667 351.357 52C427.357 85.3333 447.357 85.3333 411.357 52C375.357 18.6667 395.357 18.6667 471.357 52C547.357 85.3333 567.357 85.3333 531.357 52C495.357 18.6667 515.357 18.6667 591.357 52C667.357 85.3333 687.357 85.3333 651.357 52" stroke="#8B6263" stroke-opacity="0.31" stroke-width="2"/>
</svg>
